<?xml version="1.0" standalone="no"?>
<!DOCTYPE svg PUBLIC "-//W3C//DTD SVG 20010904//EN"
 "http://www.w3.org/TR/2001/REC-SVG-20010904/DTD/svg10.dtd">
<svg version="1.0" xmlns="http://www.w3.org/2000/svg"
 width="1000.000000pt" height="1000.000000pt" viewBox="0 0 1000.000000 1000.000000"
 preserveAspectRatio="xMidYMid meet">

<g transform="translate(0.000000,1000.000000) scale(0.100000,-0.100000)"
fill="#000000" stroke="none">
<path d="M5768 8310 c-192 -35 -368 -136 -479 -274 -121 -150 -178 -337 -166
-546 11 -181 81 -343 201 -463 l64 -64 -122 -6 c-148 -7 -226 -26 -330 -80
-127 -66 -180 -123 -357 -387 -226 -338 -418 -615 -428 -618 -5 -2 -38 70 -74
160 -36 90 -129 318 -207 508 -78 190 -164 415 -192 500 -28 85 -64 182 -80
215 -161 324 -508 615 -863 724 -175 54 -254 62 -544 59 l-259 -3 -39 -31
c-56 -44 -85 -107 -80 -169 3 -35 61 -193 192 -520 103 -258 224 -564 270
-680 46 -115 111 -279 144 -364 34 -85 61 -155 61 -156 0 -1 -27 -5 -60 -8
-155 -17 -250 -121 -250 -277 0 -116 44 -195 135 -243 35 -19 61 -22 219 -27
175 -5 179 -5 187 -28 6 -16 5 -24 -4 -27 -6 -2 -316 -20 -687 -40 -906 -48
-1009 -57 -1053 -84 -41 -25 -61 -53 -77 -107 -25 -82 32 -181 116 -202 39
-10 434 -46 642 -58 62 -4 115 -11 118 -16 3 -4 -5 -8 -18 -8 -85 0 -399 -23
-426 -31 -147 -47 -167 -254 -30 -325 26 -13 537 -64 801 -80 65 -4 120 -11
123 -15 3 -5 -12 -9 -33 -9 -107 0 -432 -22 -460 -31 -46 -15 -81 -45 -104
-92 -43 -83 -3 -189 85 -227 29 -13 184 -34 551 -74 281 -31 539 -59 575 -62
77 -7 141 7 188 43 23 17 33 21 36 11 3 -7 10 -31 16 -53 30 -100 117 -195
215 -236 30 -12 55 -29 55 -37 0 -8 -7 -39 -16 -70 -22 -74 -15 -196 16 -277
41 -107 161 -202 282 -225 29 -6 55 -14 59 -18 4 -4 30 -65 57 -137 28 -71
101 -254 162 -405 61 -151 134 -340 161 -419 84 -246 161 -374 324 -536 240
-241 528 -368 865 -382 327 -14 647 94 913 308 195 156 333 348 412 571 21 57
72 189 115 293 151 367 463 1116 627 1505 192 454 232 548 302 715 40 94 93
220 118 280 25 61 146 349 268 640 123 292 261 625 308 740 47 116 124 305
172 420 444 1082 452 1104 403 1195 -14 25 -44 59 -67 75 l-43 30 -216 3
c-358 6 -525 -25 -755 -139 -180 -90 -296 -177 -456 -344 -159 -167 -246 -315
-351 -595 -24 -63 -47 -119 -52 -124 -5 -6 -19 1 -35 16 -64 59 -80 63 -316
66 l-218 4 69 72 c37 40 82 97 99 127 103 179 126 433 57 638 -98 295 -375
502 -687 516 -56 2 -123 0 -149 -5z m325 -183 c133 -52 266 -164 324 -272 56
-106 76 -201 71 -335 -5 -129 -23 -193 -79 -285 -97 -161 -277 -269 -469 -282
-130 -8 -218 9 -335 67 -113 56 -191 125 -249 221 -61 101 -71 147 -70 309 0
134 2 151 28 220 51 135 116 214 247 300 54 35 144 73 199 83 14 3 79 4 145 3
101 -3 130 -7 188 -29z m2655 -219 c16 -16 15 -40 -3 -80 -8 -18 -59 -145
-114 -283 -54 -137 -149 -374 -211 -525 -62 -151 -130 -320 -152 -375 -22 -55
-64 -156 -93 -225 -29 -69 -94 -224 -145 -345 -166 -397 -221 -527 -318 -750
-121 -281 -146 -339 -193 -455 -40 -96 -60 -123 -85 -113 -9 3 -14 -2 -14 -16
l0 -21 -20 20 c-21 21 -50 27 -50 10 0 -6 3 -9 8 -9 39 6 52 -9 29 -33 -8 -8
-10 -24 -6 -43 6 -28 7 -28 9 -5 1 14 4 19 7 12 4 -10 8 -10 19 -1 18 15 18
11 -8 -56 -15 -39 -25 -54 -35 -51 -8 4 -11 1 -8 -5 11 -17 -4 -59 -22 -59
-15 0 -15 2 1 19 13 14 14 20 4 23 -12 4 -26 -13 -47 -59 -10 -22 -41 -32 -41
-14 0 15 20 24 21 9 0 -10 38 86 39 101 0 2 -9 -6 -20 -19 -11 -13 -20 -32
-20 -43 0 -13 -5 -17 -15 -13 -9 3 -15 0 -15 -9 0 -8 -7 -15 -15 -15 -25 0
-20 -79 7 -107 12 -13 27 -23 35 -23 17 0 17 2 -8 -64 -12 -31 -26 -56 -31
-56 -5 0 -6 4 -3 10 8 14 -8 13 -22 -1 -17 -17 -11 14 6 35 11 13 10 18 -4 32
-15 15 -16 15 -9 -10 3 -15 2 -26 -2 -25 -5 1 -17 -1 -28 -6 -14 -6 -23 -2
-35 14 l-17 22 -12 -26 c-17 -36 -15 -52 6 -67 10 -7 22 -26 25 -43 3 -16 4
-24 1 -17 -3 6 -10 12 -15 12 -12 0 2 -33 19 -44 9 -5 12 -19 9 -45 l-5 -36
11 37 c6 21 14 38 18 38 11 0 -29 -109 -71 -194 -24 -50 -40 -71 -52 -70 -10
1 -16 -2 -13 -6 3 -4 -2 -10 -10 -13 -10 -5 -14 -22 -13 -64 1 -38 -6 -81 -21
-123 -33 -95 -91 -213 -113 -228 -18 -13 -26 -38 -8 -27 6 3 10 1 10 -5 0 -6
-11 -16 -25 -22 -14 -6 -25 -15 -25 -20 0 -13 18 -10 23 5 3 6 6 8 6 2 0 -5
-33 -93 -75 -195 -41 -102 -83 -205 -93 -230 -10 -25 -51 -124 -90 -220 -40
-96 -108 -267 -152 -379 -77 -199 -111 -267 -171 -343 -29 -37 -32 -38 -86
-35 -53 2 -57 4 -54 25 2 15 -2 22 -14 22 -13 0 -14 3 -4 15 30 37 -4 9 -69
-55 l-71 -71 27 -10 c19 -7 28 -6 34 2 5 8 14 6 30 -10 12 -11 26 -21 31 -21
4 0 8 -5 8 -11 0 -8 -4 -9 -13 0 -20 16 -29 2 -11 -16 12 -12 18 -13 32 -2 9
7 -5 -11 -33 -40 -119 -125 -370 -250 -595 -296 -127 -26 -349 -17 -490 19
-115 30 -288 107 -353 158 -138 107 -253 229 -334 355 -45 70 -53 88 -144 343
-61 170 -244 635 -305 773 -19 43 -34 82 -34 87 0 5 24 19 53 33 83 38 126 82
167 172 20 44 40 89 44 99 6 19 7 18 29 -1 12 -11 36 -27 54 -35 31 -16 32
-15 44 14 10 25 10 34 -4 57 -9 14 -21 25 -27 23 -6 -1 -13 5 -16 13 -4 8 -15
15 -25 15 -10 0 -19 5 -19 11 0 6 -6 9 -14 6 -18 -7 -31 109 -15 129 9 11 56
14 215 14 180 0 204 -2 212 -17 6 -9 7 -61 4 -115 -8 -161 22 -237 137 -345
75 -70 126 -87 271 -88 l115 -1 61 -180 c62 -181 152 -435 173 -487 8 -20 17
-27 31 -25 16 2 33 29 66 103 58 128 58 128 87 205 42 109 153 382 182 445 31
69 185 452 185 461 0 8 171 444 237 604 31 74 86 209 123 300 37 91 96 230
130 310 34 80 76 179 93 220 17 41 78 190 135 330 58 140 124 302 147 360 94
232 155 379 188 450 19 41 50 125 70 185 58 182 204 568 260 687 114 244 404
531 651 643 92 41 216 82 302 99 92 19 544 22 562 4z m-6185 -49 c144 -29 238
-62 342 -121 208 -118 384 -280 503 -466 46 -71 105 -207 127 -292 8 -33 34
-103 56 -157 22 -54 78 -190 124 -303 46 -113 124 -304 173 -425 106 -259 152
-387 152 -421 l0 -24 -359 0 c-418 0 -401 -4 -421 98 -26 130 -75 199 -183
257 -78 42 -122 84 -122 116 -1 19 3 25 14 21 9 -3 12 0 9 9 -2 8 -19 15 -37
17 -22 2 -31 0 -26 -7 7 -13 3 -14 -19 -5 -26 10 -18 24 14 24 17 0 30 5 30
10 0 6 -13 10 -30 10 -16 0 -30 -5 -30 -11 0 -6 -9 -8 -22 -4 -18 5 -20 4 -8
-4 13 -9 13 -11 -1 -11 -9 0 -22 -7 -29 -15 -7 -8 -21 -15 -32 -15 -10 0 -17
-4 -14 -9 3 -4 -20 -11 -50 -15 -72 -8 -92 6 -108 79 -4 19 -3 25 2 17 7 -11
18 -6 48 20 22 18 41 36 42 41 2 4 11 7 19 7 8 0 13 6 10 13 -41 104 -47 109
-81 74 -10 -9 -21 -17 -25 -17 -4 0 -19 -9 -32 -21 l-24 -20 -12 28 c-19 42
-80 205 -87 233 -5 17 -4 21 2 11 6 -8 15 -10 22 -6 10 6 10 10 -1 19 -8 6
-20 23 -28 38 -8 15 -17 25 -21 23 -5 -3 -10 1 -13 8 -11 26 -78 190 -150 367
-41 102 -109 271 -152 375 -178 439 -176 434 -165 455 10 19 21 20 251 20 204
0 256 -3 342 -21z m4246 -1075 c19 -14 22 -22 16 -53 -4 -20 -20 -67 -37 -106
-40 -92 -126 -303 -250 -610 -111 -277 -357 -876 -410 -1000 -34 -78 -176
-433 -325 -810 -41 -104 -106 -264 -144 -355 -37 -91 -113 -277 -168 -415
-129 -325 -129 -325 -147 -332 -25 -10 -39 16 -72 135 l-32 113 37 72 c32 64
37 83 41 162 4 82 -2 126 -23 178 -6 14 4 22 50 42 113 50 158 108 171 217 7
59 -21 160 -57 211 l-20 28 45 72 c25 40 55 109 70 157 14 47 63 211 110 365
46 154 94 314 107 355 14 48 22 102 22 151 1 65 -3 83 -26 121 -34 58 -76 93
-157 132 l-65 31 -220 5 c-121 3 -225 9 -232 13 -25 16 -32 81 -26 246 6 185
-1 207 -40 144 -12 -21 -74 -120 -136 -220 l-114 -183 -267 0 c-304 0 -307 1
-274 65 18 34 168 253 364 530 52 74 120 176 150 226 118 198 250 296 430 319
30 4 404 8 830 9 700 1 778 -1 799 -15z m-4341 -175 c-3 -8 -7 -3 -11 10 -4
17 -3 21 5 13 5 -5 8 -16 6 -23z m480 -694 c107 -59 156 -136 202 -317 12 -46
26 -89 32 -95 8 -10 256 -13 1177 -13 1146 0 1167 0 1199 -20 42 -26 72 -76
72 -122 0 -20 -29 -133 -65 -250 -36 -117 -95 -314 -132 -438 -36 -124 -73
-235 -81 -248 -8 -13 -38 -35 -66 -50 l-51 -27 -888 -5 -889 -5 -24 -28 c-29
-34 -31 -76 -3 -111 l20 -26 925 0 c792 0 929 -2 953 -15 35 -18 41 -32 41
-102 0 -47 -4 -59 -29 -84 l-29 -29 -959 0 c-912 0 -960 1 -998 19 -56 26
-104 77 -132 139 -18 41 -23 70 -23 135 0 92 17 140 69 199 17 20 31 45 31 56
0 20 -72 236 -174 527 -85 240 -152 440 -176 531 -46 174 -64 183 -358 184
l-214 0 -29 29 c-25 25 -29 37 -29 81 0 46 4 56 35 87 l35 35 252 -4 253 -3
53 -30z m-163 -599 c55 -55 33 -168 -39 -203 -33 -15 -52 -15 -227 -4 -106 7
-276 16 -378 21 -184 9 -1080 95 -1089 105 -11 11 11 14 173 25 94 6 213 15
265 20 152 15 415 29 690 36 140 4 302 10 360 14 200 14 218 13 245 -14z m135
-423 c52 -30 66 -108 31 -173 -36 -68 -48 -71 -206 -60 -77 6 -205 15 -285 20
-204 15 -449 37 -705 65 -121 13 -259 27 -307 30 -49 4 -88 11 -88 16 0 5 8 9
18 9 9 0 60 5 112 10 187 20 720 59 1015 75 165 9 302 18 304 21 11 11 86 2
111 -13z m31 -492 c24 -24 29 -38 29 -75 0 -32 -6 -52 -19 -65 -11 -11 -17
-22 -14 -24 2 -3 -5 -11 -17 -17 -22 -12 -46 -11 -485 25 -167 14 -507 55
-614 75 -53 10 -79 20 -50 20 8 0 93 9 189 19 177 20 344 33 660 51 96 6 184
12 195 14 67 11 97 6 126 -23z m865 -583 c106 -49 158 -176 123 -302 -13 -47
-91 -128 -144 -150 -50 -21 -140 -20 -190 3 -46 20 -101 79 -121 127 -18 44
-18 153 1 197 55 133 199 187 331 125z m1232 -4 c98 -48 140 -131 128 -247 -8
-78 -42 -130 -115 -174 -70 -42 -123 -50 -195 -29 -65 19 -126 72 -152 133
-24 56 -22 159 3 208 47 91 118 134 219 135 45 0 73 -6 112 -26z"/>
<path d="M8265 7723 c-49 -6 -105 -25 -105 -37 0 -6 -4 -6 -8 2 -7 10 -15 7
-33 -12 -14 -14 -37 -30 -52 -35 -15 -6 -27 -16 -26 -23 0 -10 2 -10 6 0 6 15
25 16 41 0 22 -22 -33 -86 -70 -80 -12 2 -18 -3 -18 -17 0 -12 5 -21 10 -21 6
0 10 -13 10 -30 0 -16 4 -30 8 -30 12 0 30 -80 27 -120 -3 -40 24 -97 37 -77
5 7 8 -1 8 -20 0 -26 3 -31 16 -26 14 5 15 3 7 -12 -7 -11 -6 -25 1 -41 14
-31 36 -39 36 -14 0 11 -4 20 -10 20 -22 0 -8 20 18 26 15 4 32 14 39 23 11
14 12 14 13 -1 0 -19 20 -26 20 -7 0 5 4 7 10 4 6 -4 7 2 1 17 -6 16 -4 27 5
36 12 11 14 7 15 -20 l1 -33 8 30 c4 17 8 23 9 16 2 -29 21 4 30 53 6 34 6 45
-2 37 -6 -6 -21 -11 -33 -11 -18 0 -21 5 -19 28 1 15 5 35 10 45 5 11 2 24 -9
36 -9 10 -16 24 -16 32 0 12 2 11 10 -1 5 -8 19 -15 32 -15 15 0 24 -8 29 -25
5 -16 7 -19 8 -7 1 9 5 25 10 35 5 9 12 25 15 34 3 12 11 15 22 11 12 -4 15
-2 12 8 -3 8 -12 13 -21 13 -9 -1 -15 3 -14 10 1 6 -4 10 -11 8 -8 -1 -11 2
-7 8 9 14 21 13 38 -4 32 -32 63 1 99 107 9 28 9 43 2 55 -17 26 -110 37 -209
25z m-125 -80 c0 -20 -3 -24 -11 -16 -7 7 -9 19 -6 27 10 24 17 19 17 -11z
m30 -19 c0 -19 -4 -33 -9 -30 -20 13 -21 -28 -1 -47 12 -10 19 -22 15 -25 -3
-4 -10 0 -15 7 -4 8 -15 11 -25 8 -9 -4 -13 -11 -10 -17 7 -11 -6 -13 -29 -4
-24 9 -19 32 7 36 16 2 21 9 20 25 -2 14 4 24 17 28 13 4 20 15 20 31 0 13 2
24 5 24 3 0 5 -16 5 -36z m53 10 c3 -3 3 -13 0 -21 -5 -12 -7 -12 -14 -1 -15
23 -4 40 14 22z m-3 -93 c0 -5 8 -12 18 -14 14 -4 14 -5 1 -6 -9 0 -22 6 -29
14 -9 10 -9 15 -1 15 6 0 11 -4 11 -9z m-151 -20 c10 -6 10 -13 2 -29 -6 -11
-8 -28 -5 -36 4 -10 1 -16 -9 -16 -20 0 -30 31 -21 64 7 28 12 30 33 17z m266
-30 c3 -5 1 -12 -5 -16 -5 -3 -10 1 -10 9 0 18 6 21 15 7z"/>
<path d="M8010 7625 c0 -8 2 -15 4 -15 2 0 6 7 10 15 3 8 1 15 -4 15 -6 0 -10
-7 -10 -15z"/>
<path d="M7926 7605 c-8 -9 -18 -16 -21 -15 -18 1 -25 -2 -50 -24 -31 -27 -21
-40 22 -30 23 4 25 3 13 -6 -12 -10 -11 -11 8 -7 16 4 22 1 22 -13 0 -10 9
-22 20 -25 11 -3 20 -14 20 -23 0 -10 9 -23 20 -30 19 -11 20 -10 20 24 0 25
-7 43 -21 55 -11 10 -18 23 -15 28 4 6 0 24 -8 40 -12 23 -13 31 -3 34 8 4 9
6 0 6 -6 1 -18 -6 -27 -14z m-21 -35 c-27 -12 -43 -12 -25 0 8 5 22 9 30 9 10
0 8 -3 -5 -9z"/>
<path d="M8000 7570 c0 -5 5 -10 10 -10 6 0 10 5 10 10 0 6 -4 10 -10 10 -5 0
-10 -4 -10 -10z"/>
<path d="M7920 7450 c0 -5 5 -10 10 -10 6 0 10 5 10 10 0 6 -4 10 -10 10 -5 0
-10 -4 -10 -10z"/>
<path d="M8340 7430 c0 -5 5 -10 11 -10 5 0 7 5 4 10 -3 6 -8 10 -11 10 -2 0
-4 -4 -4 -10z"/>
<path d="M8020 7340 c0 -5 5 -10 10 -10 6 0 10 5 10 10 0 6 -4 10 -10 10 -5 0
-10 -4 -10 -10z"/>
<path d="M8233 7154 c-24 -26 -13 -43 16 -25 9 6 10 14 5 24 -8 12 -11 13 -21
1z"/>
<path d="M8170 7116 c0 -9 30 -14 35 -6 4 6 -3 10 -14 10 -12 0 -21 -2 -21 -4z"/>
<path d="M7321 4768 c-13 -29 -27 -62 -31 -73 -4 -11 -19 -45 -33 -75 -14 -30
-22 -57 -18 -60 4 -3 11 -14 16 -25 8 -19 8 -19 13 -1 2 10 -2 22 -10 27 -11
8 -5 13 13 11 4 -1 5 9 2 21 -4 18 -3 19 6 7 9 -12 10 -10 6 11 -4 17 -1 30 9
38 9 8 16 25 16 39 0 35 40 117 50 102 5 -8 9 -7 13 3 4 12 -10 27 -26 27 -1
0 -13 -24 -26 -52z"/>
<path d="M7354 4646 c-3 -8 -4 -23 -2 -33 3 -11 6 -6 9 15 6 34 2 42 -7 18z"/>
<path d="M7216 4523 c-3 -10 -9 -24 -12 -32 -4 -8 -2 -12 7 -9 7 2 16 16 20
31 8 30 -5 38 -15 10z"/>
<path d="M7191 4454 c0 -11 3 -14 6 -6 3 7 2 16 -1 19 -3 4 -6 -2 -5 -13z"/>
<path d="M7115 4100 c-3 -5 -1 -10 4 -10 6 0 11 5 11 10 0 6 -2 10 -4 10 -3 0
-8 -4 -11 -10z"/>
<path d="M6981 3943 c-2 -23 -4 -28 -17 -38 -18 -14 -23 -92 -5 -80 5 3 12 1
16 -5 15 -24 25 -6 24 43 0 45 -16 114 -18 80z"/>
<path d="M7007 3754 c-4 -4 -7 -14 -7 -23 0 -11 3 -12 11 -4 6 6 10 16 7 23
-2 6 -7 8 -11 4z"/>
<path d="M6775 3454 c-14 -22 -14 -26 0 -40 13 -14 15 -13 15 7 0 12 7 27 16
34 15 11 15 12 1 18 -10 4 -21 -3 -32 -19z"/>
<path d="M4366 2427 c-8 -18 7 -89 23 -112 4 -5 13 -29 21 -52 9 -30 17 -40
27 -36 12 5 14 1 9 -15 -6 -17 -3 -19 13 -15 17 4 18 8 8 24 -9 14 -9 22 -1
27 6 4 14 14 17 22 4 10 6 8 6 -7 1 -13 -5 -23 -11 -23 -9 0 -8 -3 2 -10 23
-14 39 6 31 38 -5 18 -14 26 -24 24 -10 -2 -17 4 -17 14 0 13 -3 14 -15 4 -13
-11 -15 -8 -15 19 0 21 -5 31 -15 31 -9 0 -12 6 -9 15 4 8 1 15 -5 15 -6 0
-11 8 -12 18 0 14 -2 14 -9 -3 -7 -18 -8 -16 -12 10 -3 25 -6 27 -12 12z"/>
<path d="M4530 2160 c0 -5 5 -10 11 -10 5 0 7 5 4 10 -3 6 -8 10 -11 10 -2 0
-4 -4 -4 -10z"/>
<path d="M4490 2149 c0 -6 10 -18 21 -28 13 -10 19 -25 17 -36 -5 -18 -6 -18
-16 5 -6 14 -11 19 -11 11 -1 -17 38 -70 100 -136 26 -27 56 -61 67 -75 11
-14 34 -33 51 -43 28 -16 32 -16 36 -3 3 9 8 24 11 34 12 30 3 76 -17 95 -11
10 -17 22 -14 28 7 11 -20 41 -28 32 -3 -3 -18 -2 -32 1 -18 5 -25 12 -21 21
3 8 2 23 -2 33 -5 11 -9 1 -13 -33 l-6 -50 -1 47 c-2 50 -16 69 -35 45 -7 -8
-19 -17 -28 -20 -13 -4 -16 0 -15 23 1 19 -2 26 -11 23 -7 -3 -13 -1 -13 4 0
4 -9 14 -20 21 -14 8 -20 9 -20 1z m230 -145 c0 -9 -5 -14 -12 -12 -18 6 -21
28 -4 28 9 0 16 -7 16 -16z"/>
<path d="M4775 1823 c2 -10 4 -20 4 -23 2 -7 21 23 21 33 0 4 -6 7 -14 7 -8 0
-13 -8 -11 -17z"/>
<path d="M4815 1810 c3 -5 8 -10 11 -10 2 0 4 5 4 10 0 6 -5 10 -11 10 -5 0
-7 -4 -4 -10z"/>
<path d="M2950 6200 c0 -13 18 -22 24 -11 3 5 -1 11 -9 15 -8 3 -15 1 -15 -4z"/>
<path d="M2996 6193 c-7 -16 36 -35 59 -27 24 9 18 18 -20 30 -27 9 -35 8 -39
-3z"/>
</g>
</svg>
